<mxfile host="app.diagrams.net" modified="2022-04-19T06:32:27.771Z" agent="5.0 (Macintosh; Intel Mac OS X 10_15_7) AppleWebKit/605.1.15 (KHTML, like Gecko) Version/15.4 Safari/605.1.15" etag="1bsInllervYmxoU--fuM" version="17.4.5" type="github">
  <diagram id="nrPddMPQ2ucWsoKjsucz" name="Page-1">
    <mxGraphModel dx="528" dy="1267" grid="1" gridSize="10" guides="1" tooltips="1" connect="1" arrows="1" fold="1" page="1" pageScale="1" pageWidth="827" pageHeight="1169" math="0" shadow="0">
      <root>
        <mxCell id="0" />
        <mxCell id="1" parent="0" />
        <mxCell id="dhg-PbAKEU2N6swECHbK-6" value="generate model with &lt;br&gt;&lt;b&gt;&lt;font color=&quot;#ff0000&quot;&gt;high coverage&lt;/font&gt;&lt;/b&gt;" style="edgeStyle=orthogonalEdgeStyle;rounded=0;orthogonalLoop=1;jettySize=auto;html=1;" edge="1" parent="1" source="dhg-PbAKEU2N6swECHbK-3" target="dhg-PbAKEU2N6swECHbK-5">
          <mxGeometry relative="1" as="geometry" />
        </mxCell>
        <mxCell id="dhg-PbAKEU2N6swECHbK-3" value="Coverage&lt;br&gt;GA" style="rounded=0;whiteSpace=wrap;html=1;" vertex="1" parent="1">
          <mxGeometry x="170" y="270" width="120" height="60" as="geometry" />
        </mxCell>
        <mxCell id="dhg-PbAKEU2N6swECHbK-8" value="find inputs/weights&lt;br&gt;of the model that&amp;nbsp;triggers &lt;br&gt;&lt;b&gt;&lt;font color=&quot;#ff0000&quot;&gt;NaN/high inconsistency&lt;/font&gt;&lt;/b&gt;" style="edgeStyle=orthogonalEdgeStyle;rounded=0;orthogonalLoop=1;jettySize=auto;html=1;" edge="1" parent="1" source="dhg-PbAKEU2N6swECHbK-5" target="dhg-PbAKEU2N6swECHbK-7">
          <mxGeometry relative="1" as="geometry" />
        </mxCell>
        <mxCell id="dhg-PbAKEU2N6swECHbK-5" value="Detection&lt;br&gt;GA" style="rounded=0;whiteSpace=wrap;html=1;" vertex="1" parent="1">
          <mxGeometry x="170" y="410" width="120" height="60" as="geometry" />
        </mxCell>
        <mxCell id="dhg-PbAKEU2N6swECHbK-13" value="find which hyperparameter&lt;br&gt;and layer responsible for the&lt;br&gt;inconsistencies" style="edgeStyle=orthogonalEdgeStyle;rounded=0;orthogonalLoop=1;jettySize=auto;html=1;fontColor=#FF0000;" edge="1" parent="1" source="dhg-PbAKEU2N6swECHbK-7">
          <mxGeometry relative="1" as="geometry">
            <mxPoint x="230" y="690" as="targetPoint" />
          </mxGeometry>
        </mxCell>
        <mxCell id="dhg-PbAKEU2N6swECHbK-7" value="Source Localizer" style="rounded=0;whiteSpace=wrap;html=1;" vertex="1" parent="1">
          <mxGeometry x="170" y="550" width="120" height="60" as="geometry" />
        </mxCell>
      </root>
    </mxGraphModel>
  </diagram>
</mxfile>
